<svg width="41" height="40" viewBox="0 0 41 40" fill="none" xmlns="http://www.w3.org/2000/svg">
<rect x="1" y="0.5" width="39" height="39" rx="19.5" fill="white"/>
<rect x="1" y="0.5" width="39" height="39" rx="19.5" stroke="#016E73" stroke-dasharray="4 4"/>
<path d="M25.6429 20.8571H21.3571V25.1429C21.3571 25.6143 20.9714 26 20.5 26C20.0286 26 19.6429 25.6143 19.6429 25.1429V20.8571H15.3571C14.8857 20.8571 14.5 20.4714 14.5 20C14.5 19.5286 14.8857 19.1429 15.3571 19.1429H19.6429V14.8571C19.6429 14.3857 20.0286 14 20.5 14C20.9714 14 21.3571 14.3857 21.3571 14.8571V19.1429H25.6429C26.1143 19.1429 26.5 19.5286 26.5 20C26.5 20.4714 26.1143 20.8571 25.6429 20.8571Z" fill="#016E73"/>
</svg>
