<svg width="21" height="24" viewBox="0 0 21 24" fill="none" xmlns="http://www.w3.org/2000/svg">
<path fill-rule="evenodd" clip-rule="evenodd" d="M2.25 2.25V21.75H10.875C11.1734 21.75 11.4595 21.8685 11.6705 22.0795C11.8815 22.2905 12 22.5766 12 22.875C12 23.1734 11.8815 23.4595 11.6705 23.6705C11.4595 23.8815 11.1734 24 10.875 24H1.5C1.10218 24 0.720644 23.842 0.43934 23.5607C0.158035 23.2794 0 22.8978 0 22.5V1.5C0 1.10218 0.158035 0.720645 0.43934 0.439341C0.720644 0.158036 1.10218 7.34838e-07 1.5 7.34838e-07H11.466C11.6675 -0.000198727 11.867 0.0402099 12.0526 0.118814C12.2381 0.197418 12.4059 0.312606 12.546 0.457501L17.5785 5.6715C17.8489 5.9512 18 6.32499 18 6.714V9.375C18 9.67337 17.8815 9.95952 17.6705 10.1705C17.4595 10.3815 17.1734 10.5 16.875 10.5C16.5766 10.5 16.2905 10.3815 16.0795 10.1705C15.8685 9.95952 15.75 9.67337 15.75 9.375V9H11.625C10.9288 9 10.2611 8.72344 9.76884 8.23116C9.27656 7.73887 9 7.07119 9 6.375V2.25H2.25ZM11.25 2.355L15.492 6.75H11.625C11.5255 6.75 11.4302 6.71049 11.3598 6.64017C11.2895 6.56984 11.25 6.47446 11.25 6.375V2.355ZM16.5 22.5C16.2016 22.5 15.9155 22.3815 15.7045 22.1705C15.4935 21.9595 15.375 21.6734 15.375 21.375V19.125H13.125C12.8266 19.125 12.5405 19.0065 12.3295 18.7955C12.1185 18.5845 12 18.2984 12 18C12 17.7016 12.1185 17.4155 12.3295 17.2045C12.5405 16.9935 12.8266 16.875 13.125 16.875H15.375V14.625C15.375 14.3266 15.4935 14.0405 15.7045 13.8295C15.9155 13.6185 16.2016 13.5 16.5 13.5C16.7984 13.5 17.0845 13.6185 17.2955 13.8295C17.5065 14.0405 17.625 14.3266 17.625 14.625V16.875H19.875C20.1734 16.875 20.4595 16.9935 20.6705 17.2045C20.8815 17.4155 21 17.7016 21 18C21 18.2984 20.8815 18.5845 20.6705 18.7955C20.4595 19.0065 20.1734 19.125 19.875 19.125H17.625V21.375C17.625 21.6734 17.5065 21.9595 17.2955 22.1705C17.0845 22.3815 16.7984 22.5 16.5 22.5Z" fill="#616161"/>
</svg>
