<svg width="21" height="23" viewBox="0 0 21 23" fill="none" xmlns="http://www.w3.org/2000/svg">
<path fill-rule="evenodd" clip-rule="evenodd" d="M14.7971 5.57178C14.3871 5.57178 14.0471 5.23178 14.0471 4.82178V3.59778C13.2731 3.57178 12.3641 3.57178 11.2971 3.57178H9.29712C8.22912 3.57178 7.32112 3.57178 6.54712 3.59778V4.82178C6.54712 5.23178 6.20712 5.57178 5.79712 5.57178C5.38712 5.57178 5.04712 5.23178 5.04712 4.82178V3.70578C4.10212 3.82878 3.45312 4.06578 2.99712 4.52178C2.39512 5.12378 2.17512 6.06178 2.09412 7.57178H18.5001C18.4191 6.06178 18.1981 5.12378 17.5971 4.52178C17.1411 4.06578 16.4921 3.82878 15.5471 3.70578V4.82178C15.5471 5.23178 15.2071 5.57178 14.7971 5.57178ZM18.5411 9.07178C18.5465 9.60044 18.5485 10.1838 18.5471 10.8218V11.8218C18.5471 12.2318 18.8871 12.5718 19.2971 12.5718C19.7071 12.5718 20.0471 12.2318 20.0471 11.8218V10.8218C20.0471 6.84178 20.0471 4.85178 18.6571 3.46178C17.8851 2.68978 16.9271 2.34678 15.5471 2.19378V1.32178C15.5471 0.911777 15.2071 0.571777 14.7971 0.571777C14.3871 0.571777 14.0471 0.911777 14.0471 1.32178V2.09678C13.2511 2.07178 12.3421 2.07178 11.2971 2.07178H9.29712C8.25112 2.07178 7.34312 2.07178 6.54712 2.09678V1.32178C6.54712 0.911777 6.20712 0.571777 5.79712 0.571777C5.38712 0.571777 5.04712 0.911777 5.04712 1.32178V2.19378C3.66712 2.34678 2.70912 2.68978 1.93712 3.46178C0.547119 4.85178 0.547119 6.85178 0.547119 10.8218V12.8218C0.547119 16.8018 0.547119 18.7918 1.93712 20.1818C3.32712 21.5718 5.31712 21.5718 9.29712 21.5718C9.70712 21.5718 10.0471 21.2318 10.0471 20.8218C10.0471 20.4118 9.70712 20.0718 9.29712 20.0718C5.73712 20.0718 3.94712 20.0718 2.99712 19.1218C2.04712 18.1718 2.04712 16.3818 2.04712 12.8218V10.8218C2.04645 10.1844 2.04812 9.60111 2.05212 9.07178H18.5411ZM15.2971 22.0718C12.6771 22.0718 10.5471 19.9418 10.5471 17.3218C10.5471 14.7018 12.6771 12.5718 15.2971 12.5718C17.9171 12.5718 20.0471 14.7018 20.0471 17.3218C20.0471 19.9418 17.9171 22.0718 15.2971 22.0718ZM15.2971 14.0718C13.5071 14.0718 12.0471 15.5318 12.0471 17.3218C12.0471 19.1118 13.5071 20.5718 15.2971 20.5718C17.0871 20.5718 18.5471 19.1118 18.5471 17.3218C18.5471 15.5318 17.0871 14.0718 15.2971 14.0718ZM15.7671 18.8518C15.9171 19.0018 16.1071 19.0718 16.2971 19.0718C16.4871 19.0718 16.6771 19.0018 16.8271 18.8518C17.1171 18.5618 17.1171 18.0818 16.8271 17.7918L16.0471 17.0118V15.3218C16.0471 14.9118 15.7071 14.5718 15.2971 14.5718C14.8871 14.5718 14.5471 14.9118 14.5471 15.3218V17.3218C14.5471 17.5218 14.6271 17.7118 14.7671 17.8518L15.7671 18.8518Z" fill="#2DB536"/>
</svg>
