<svg width="24" height="25" viewBox="0 0 24 25" fill="none" xmlns="http://www.w3.org/2000/svg">
<g clip-path="url(#clip0_94_947)">
<path d="M21.5001 4.5H19.3334V5.83333H21.3334V20.5H2.66676V5.83333H4.66676V4.5H2.50009C2.34425 4.5026 2.19045 4.53588 2.04747 4.59794C1.90449 4.65999 1.77514 4.74961 1.6668 4.86166C1.55846 4.97371 1.47325 5.10601 1.41605 5.251C1.35885 5.39599 1.33077 5.55083 1.33342 5.70667V20.6267C1.33077 20.7825 1.35885 20.9373 1.41605 21.0823C1.47325 21.2273 1.55846 21.3596 1.6668 21.4717C1.77514 21.5837 1.90449 21.6733 2.04747 21.7354C2.19045 21.7974 2.34425 21.8307 2.50009 21.8333H21.5001C21.6559 21.8307 21.8097 21.7974 21.9527 21.7354C22.0957 21.6733 22.225 21.5837 22.3334 21.4717C22.4417 21.3596 22.5269 21.2273 22.5841 21.0823C22.6413 20.9373 22.6694 20.7825 22.6668 20.6267V5.70667C22.6694 5.55083 22.6413 5.39599 22.5841 5.251C22.5269 5.10601 22.4417 4.97371 22.3334 4.86166C22.225 4.74961 22.0957 4.65999 21.9527 4.59794C21.8097 4.53588 21.6559 4.5026 21.5001 4.5Z" fill="#CFD214"/>
<path d="M5.33325 9.8335H6.66659V11.1668H5.33325V9.8335Z" fill="#CFD214"/>
<path d="M9.33325 9.8335H10.6666V11.1668H9.33325V9.8335Z" fill="#CFD214"/>
<path d="M13.3333 9.8335H14.6666V11.1668H13.3333V9.8335Z" fill="#CFD214"/>
<path d="M17.3333 9.8335H18.6666V11.1668H17.3333V9.8335Z" fill="#CFD214"/>
<path d="M5.33325 13.1665H6.66659V14.4998H5.33325V13.1665Z" fill="#CFD214"/>
<path d="M9.33325 13.1665H10.6666V14.4998H9.33325V13.1665Z" fill="#CFD214"/>
<path d="M13.3333 13.1665H14.6666V14.4998H13.3333V13.1665Z" fill="#CFD214"/>
<path d="M17.3333 13.1665H18.6666V14.4998H17.3333V13.1665Z" fill="#CFD214"/>
<path d="M5.33325 16.5H6.66659V17.8333H5.33325V16.5Z" fill="#CFD214"/>
<path d="M9.33325 16.5H10.6666V17.8333H9.33325V16.5Z" fill="#CFD214"/>
<path d="M13.3333 16.5H14.6666V17.8333H13.3333V16.5Z" fill="#CFD214"/>
<path d="M17.3333 16.5H18.6666V17.8333H17.3333V16.5Z" fill="#CFD214"/>
<path d="M6.66667 7.16683C6.84348 7.16683 7.01305 7.09659 7.13807 6.97157C7.2631 6.84654 7.33333 6.67697 7.33333 6.50016V2.50016C7.33333 2.32335 7.2631 2.15378 7.13807 2.02876C7.01305 1.90373 6.84348 1.8335 6.66667 1.8335C6.48986 1.8335 6.32029 1.90373 6.19526 2.02876C6.07024 2.15378 6 2.32335 6 2.50016V6.50016C6 6.67697 6.07024 6.84654 6.19526 6.97157C6.32029 7.09659 6.48986 7.16683 6.66667 7.16683Z" fill="#CFD214"/>
<path d="M17.3334 7.16683C17.5102 7.16683 17.6798 7.09659 17.8048 6.97157C17.9298 6.84654 18.0001 6.67697 18.0001 6.50016V2.50016C18.0001 2.32335 17.9298 2.15378 17.8048 2.02876C17.6798 1.90373 17.5102 1.8335 17.3334 1.8335C17.1566 1.8335 16.987 1.90373 16.862 2.02876C16.737 2.15378 16.6667 2.32335 16.6667 2.50016V6.50016C16.6667 6.67697 16.737 6.84654 16.862 6.97157C16.987 7.09659 17.1566 7.16683 17.3334 7.16683Z" fill="#CFD214"/>
<path d="M8.66675 4.5H15.3334V5.83333H8.66675V4.5Z" fill="#CFD214"/>
</g>
<defs>
<clipPath id="clip0_94_947">
<rect width="24" height="24" fill="white" transform="translate(0 0.5)"/>
</clipPath>
</defs>
</svg>
