<svg width="24" height="24" viewBox="0 0 24 24" fill="none" xmlns="http://www.w3.org/2000/svg">
<path fill-rule="evenodd" clip-rule="evenodd" d="M17.2971 6.57178C16.8871 6.57178 16.5471 6.23178 16.5471 5.82178V4.59778C15.7731 4.57178 14.8641 4.57178 13.7971 4.57178H11.7971C10.7291 4.57178 9.82112 4.57178 9.04712 4.59778V5.82178C9.04712 6.23178 8.70712 6.57178 8.29712 6.57178C7.88712 6.57178 7.54712 6.23178 7.54712 5.82178V4.70578C6.60212 4.82878 5.95312 5.06578 5.49712 5.52178C4.89512 6.12378 4.67512 7.06178 4.59412 8.57178H21.0001C20.9191 7.06178 20.6981 6.12378 20.0971 5.52178C19.6411 5.06578 18.9921 4.82878 18.0471 4.70578V5.82178C18.0471 6.23178 17.7071 6.57178 17.2971 6.57178ZM21.0411 10.0718C21.0465 10.6004 21.0485 11.1838 21.0471 11.8218V12.8218C21.0471 13.2318 21.3871 13.5718 21.7971 13.5718C22.2071 13.5718 22.5471 13.2318 22.5471 12.8218V11.8218C22.5471 7.84178 22.5471 5.85178 21.1571 4.46178C20.3851 3.68978 19.4271 3.34678 18.0471 3.19378V2.32178C18.0471 1.91178 17.7071 1.57178 17.2971 1.57178C16.8871 1.57178 16.5471 1.91178 16.5471 2.32178V3.09678C15.7511 3.07178 14.8421 3.07178 13.7971 3.07178H11.7971C10.7511 3.07178 9.84312 3.07178 9.04712 3.09678V2.32178C9.04712 1.91178 8.70712 1.57178 8.29712 1.57178C7.88712 1.57178 7.54712 1.91178 7.54712 2.32178V3.19378C6.16712 3.34678 5.20912 3.68978 4.43712 4.46178C3.04712 5.85178 3.04712 7.85178 3.04712 11.8218V13.8218C3.04712 17.8018 3.04712 19.7918 4.43712 21.1818C5.82712 22.5718 7.81712 22.5718 11.7971 22.5718C12.2071 22.5718 12.5471 22.2318 12.5471 21.8218C12.5471 21.4118 12.2071 21.0718 11.7971 21.0718C8.23712 21.0718 6.44712 21.0718 5.49712 20.1218C4.54712 19.1718 4.54712 17.3818 4.54712 13.8218V11.8218C4.54645 11.1844 4.54812 10.6011 4.55212 10.0718H21.0411ZM17.7971 23.0718C15.1771 23.0718 13.0471 20.9418 13.0471 18.3218C13.0471 15.7018 15.1771 13.5718 17.7971 13.5718C20.4171 13.5718 22.5471 15.7018 22.5471 18.3218C22.5471 20.9418 20.4171 23.0718 17.7971 23.0718ZM17.7971 15.0718C16.0071 15.0718 14.5471 16.5318 14.5471 18.3218C14.5471 20.1118 16.0071 21.5718 17.7971 21.5718C19.5871 21.5718 21.0471 20.1118 21.0471 18.3218C21.0471 16.5318 19.5871 15.0718 17.7971 15.0718ZM18.2671 19.8518C18.4171 20.0018 18.6071 20.0718 18.7971 20.0718C18.9871 20.0718 19.1771 20.0018 19.3271 19.8518C19.6171 19.5618 19.6171 19.0818 19.3271 18.7918L18.5471 18.0118V16.3218C18.5471 15.9118 18.2071 15.5718 17.7971 15.5718C17.3871 15.5718 17.0471 15.9118 17.0471 16.3218V18.3218C17.0471 18.5218 17.1271 18.7118 17.2671 18.8518L18.2671 19.8518Z" fill="#3A81F5"/>
</svg>
