<svg width="23" height="18" viewBox="0 0 23 18" fill="none" xmlns="http://www.w3.org/2000/svg">
<path d="M23 13L18 18L14.5 14.5L16 13L18 15L21.5 11.5L23 13ZM11.5 5C12.2956 5 13.0587 5.31607 13.6213 5.87868C14.1839 6.44129 14.5 7.20435 14.5 8C14.5 8.79565 14.1839 9.55871 13.6213 10.1213C13.0587 10.6839 12.2956 11 11.5 11C10.7044 11 9.94129 10.6839 9.37868 10.1213C8.81607 9.55871 8.5 8.79565 8.5 8C8.5 7.20435 8.81607 6.44129 9.37868 5.87868C9.94129 5.31607 10.7044 5 11.5 5ZM11.5 0.5C16.5 0.5 20.77 3.61 22.5 8C22.25 8.65 21.94 9.26 21.58 9.85C20.9946 9.49657 20.3514 9.24943 19.68 9.12L20.32 8C19.5117 6.34969 18.2567 4.95925 16.6975 3.98675C15.1383 3.01424 13.3376 2.49868 11.5 2.49868C9.6624 2.49868 7.86165 3.01424 6.30248 3.98675C4.74331 4.95925 3.48825 6.34969 2.68 8C3.48835 9.65014 4.74345 11.0404 6.30264 12.0126C7.86182 12.9849 9.66251 13.5002 11.5 13.5L12.71 13.43C12.57 13.93 12.5 14.46 12.5 15V15.46L11.5 15.5C6.5 15.5 2.23 12.39 0.5 8C2.23 3.61 6.5 0.5 11.5 0.5Z" fill="black"/>
</svg>
