<svg width="184" height="126" viewBox="0 0 184 126" fill="none" xmlns="http://www.w3.org/2000/svg">
<g filter="url(#filter0_d_1805_8654)">
<rect x="6" y="2" width="171.35" height="114" rx="20" fill="#E48E99"/>
</g>
<mask id="mask0_1805_8654" style="mask-type:alpha" maskUnits="userSpaceOnUse" x="6" y="2" width="172" height="114">
<rect x="6" y="2" width="171.35" height="114" rx="20" fill="#6418C3"/>
</mask>
<g mask="url(#mask0_1805_8654)">
<path d="M148.574 43.8486C162.724 43.8484 174.195 32.3776 174.195 18.2285C174.195 4.07929 162.725 -7.39237 148.574 -7.39258C134.423 -7.39258 122.952 4.07916 122.952 18.2285C122.952 32.3777 134.423 43.8486 148.574 43.8486Z" stroke="#E4636F" stroke-width="37"/>
<mask id="path-4-inside-1_1805_8654" fill="white">
<ellipse cx="31.443" cy="31.4422" rx="31.443" ry="31.4422" transform="matrix(1 0 0 -1 -9.65601 143.997)"/>
</mask>
<path d="M53.2301 112.555H16.2301C16.2301 115.625 18.7189 118.113 21.787 118.113V81.1127V44.1127C59.5862 44.1127 90.2301 74.7543 90.2301 112.555H53.2301ZM21.787 81.1127V118.113C24.8551 118.113 27.344 115.625 27.344 112.555H-9.65601H-46.656C-46.656 74.7543 -16.0121 44.1127 21.787 44.1127V81.1127ZM-9.65601 112.555H27.344C27.344 109.484 24.8551 106.997 21.787 106.997V143.997V180.997C-16.0121 180.997 -46.656 150.355 -46.656 112.555H-9.65601ZM21.787 143.997V106.997C18.7189 106.997 16.2301 109.484 16.2301 112.555H53.2301H90.2301C90.2301 150.355 59.5862 180.997 21.787 180.997V143.997Z" fill="#E4636F" mask="url(#path-4-inside-1_1805_8654)"/>
</g>
<ellipse cx="32.844" cy="102.464" rx="8.46386" ry="8.46364" fill="white" fill-opacity="0.43"/>
<ellipse cx="22.4802" cy="102.464" rx="8.46386" ry="8.46364" fill="white" fill-opacity="0.43"/>
<defs>
<filter id="filter0_d_1805_8654" x="0" y="0" width="183.35" height="126" filterUnits="userSpaceOnUse" color-interpolation-filters="sRGB">
<feFlood flood-opacity="0" result="BackgroundImageFix"/>
<feColorMatrix in="SourceAlpha" type="matrix" values="0 0 0 0 0 0 0 0 0 0 0 0 0 0 0 0 0 0 127 0" result="hardAlpha"/>
<feOffset dy="4"/>
<feGaussianBlur stdDeviation="3"/>
<feColorMatrix type="matrix" values="0 0 0 0 0.243137 0 0 0 0 0.286275 0 0 0 0 0.329412 0 0 0 0.04 0"/>
<feBlend mode="normal" in2="BackgroundImageFix" result="effect1_dropShadow_1805_8654"/>
<feBlend mode="normal" in="SourceGraphic" in2="effect1_dropShadow_1805_8654" result="shape"/>
</filter>
</defs>
</svg>
