<svg width="24" height="24" viewBox="0 0 24 24" fill="none" xmlns="http://www.w3.org/2000/svg">
<path d="M11.994 0C5.37 0 0 5.37 0 11.994C0 18.618 5.37 23.9892 11.994 23.9892C18.618 23.9892 23.9892 18.6192 23.9892 11.994C23.988 5.37 18.6192 0 11.994 0ZM2.4 11.994C2.4 10.7341 2.64816 9.48653 3.1303 8.32253C3.61244 7.15854 4.31913 6.1009 5.21002 5.21002C6.1009 4.31913 7.15854 3.61244 8.32253 3.1303C9.48653 2.64816 10.7341 2.4 11.994 2.4C13.2539 2.4 14.5015 2.64816 15.6655 3.1303C16.8295 3.61244 17.8871 4.31913 18.778 5.21002C19.6689 6.1009 20.3756 7.15854 20.8577 8.32253C21.3398 9.48653 21.588 10.7341 21.588 11.994C21.588 14.5385 20.5772 16.9788 18.778 18.778C16.9788 20.5772 14.5385 21.588 11.994 21.588C9.44951 21.588 7.00924 20.5772 5.21002 18.778C3.41079 16.9788 2.4 14.5385 2.4 11.994ZM17.0484 8.1516C17.2734 8.37663 17.3997 8.6818 17.3997 9C17.3997 9.3182 17.2734 9.62337 17.0484 9.8484L11.6484 15.2484C11.4234 15.4734 11.1182 15.5997 10.8 15.5997C10.4818 15.5997 10.1766 15.4734 9.9516 15.2484L7.5516 12.8484C7.33301 12.6221 7.21206 12.319 7.21479 12.0043C7.21752 11.6897 7.34373 11.3887 7.56622 11.1662C7.78871 10.9437 8.08968 10.8175 8.40432 10.8148C8.71895 10.8121 9.02208 10.933 9.2484 11.1516L10.8 12.7032L15.3516 8.1516C15.5766 7.92663 15.8818 7.80026 16.2 7.80026C16.5182 7.80026 16.8234 7.92663 17.0484 8.1516Z" fill="#016E73"/>
</svg>
