<svg width="24" height="24" viewBox="0 0 24 24" fill="none" xmlns="http://www.w3.org/2000/svg">
<path d="M2.75499 14.7161L3.27199 16.6481C3.87599 18.9031 4.17899 20.0311 4.86399 20.7621C5.40464 21.3389 6.10408 21.7425 6.87399 21.9221C7.84999 22.1501 8.97799 21.8481 11.234 21.2441C13.488 20.6401 14.616 20.3381 15.347 19.6531C15.4077 19.5958 15.4663 19.5371 15.523 19.4771C15.1824 19.4464 14.8439 19.3963 14.509 19.3271C13.813 19.1891 12.986 18.9671 12.008 18.7051L11.901 18.6761L11.876 18.6701C10.812 18.3841 9.92299 18.1461 9.21299 17.8901C8.46599 17.6201 7.78799 17.2871 7.21099 16.7471C6.41731 16.0035 5.86191 15.0413 5.61499 13.9821C5.43499 13.2131 5.48699 12.4591 5.62699 11.6781C5.76099 10.9291 6.00099 10.0311 6.28899 8.95609L6.82399 6.96209L6.84199 6.89209C4.92199 7.40909 3.91099 7.71509 3.23699 8.34609C2.65949 8.88714 2.25545 9.58734 2.07599 10.3581C1.84799 11.3331 2.14999 12.4611 2.75499 14.7161Z" fill="#6C6C6C"/>
<path fill-rule="evenodd" clip-rule="evenodd" d="M20.83 10.715L20.312 12.647C19.707 14.902 19.405 16.03 18.72 16.761C18.1795 17.3382 17.48 17.7422 16.71 17.922C16.6133 17.9447 16.515 17.962 16.415 17.974C15.5 18.087 14.383 17.788 12.351 17.244C10.096 16.639 8.96799 16.337 8.23699 15.652C7.65966 15.1112 7.25563 14.4114 7.07599 13.641C6.84799 12.665 7.14999 11.538 7.75499 9.28299L8.27199 7.35099L8.51599 6.44599C8.97099 4.77999 9.27699 3.86299 9.86399 3.23599C10.4046 2.65919 11.1041 2.25553 11.874 2.07599C12.85 1.84799 13.978 2.14999 16.234 2.75499C18.488 3.35899 19.616 3.66099 20.347 4.34499C20.9245 4.88605 21.3285 5.58625 21.508 6.35699C21.736 7.33299 21.434 8.45999 20.83 10.715ZM11.051 9.80499C11.0765 9.70984 11.1205 9.62065 11.1805 9.54251C11.2405 9.46437 11.3154 9.39883 11.4007 9.34961C11.486 9.30039 11.5802 9.26847 11.6779 9.25566C11.7756 9.24286 11.8749 9.24943 11.97 9.27499L16.8 10.57C16.8976 10.5931 16.9897 10.6357 17.0706 10.695C17.1515 10.7544 17.2197 10.8294 17.2711 10.9156C17.3225 11.0018 17.3561 11.0974 17.3699 11.1968C17.3836 11.2963 17.3773 11.3974 17.3513 11.4943C17.3252 11.5913 17.28 11.682 17.2183 11.7611C17.1565 11.8402 17.0795 11.9062 16.9919 11.955C16.9042 12.0038 16.8076 12.0346 16.7078 12.0454C16.608 12.0562 16.5071 12.0469 16.411 12.018L11.581 10.724C11.389 10.6724 11.2254 10.5468 11.126 10.3747C11.0267 10.2025 10.9997 9.99701 11.051 9.80499ZM10.275 12.704C10.3266 12.512 10.4522 12.3484 10.6243 12.249C10.7964 12.1497 11.001 12.1227 11.193 12.174L14.091 12.951C14.1891 12.9736 14.2817 13.0158 14.3631 13.075C14.4446 13.1342 14.5133 13.2092 14.5652 13.2955C14.6171 13.3818 14.651 13.4777 14.665 13.5774C14.679 13.6771 14.6728 13.7786 14.6468 13.8759C14.6207 13.9732 14.5753 14.0642 14.5133 14.1435C14.4513 14.2229 14.374 14.2889 14.2859 14.3378C14.1978 14.3866 14.1008 14.4172 14.0007 14.4277C13.9005 14.4382 13.7993 14.4284 13.703 14.399L10.805 13.623C10.7098 13.5975 10.6206 13.5534 10.5425 13.4934C10.4644 13.4334 10.3988 13.3586 10.3496 13.2733C10.3004 13.1879 10.2685 13.0937 10.2557 12.9961C10.2429 12.8984 10.2494 12.7991 10.275 12.704Z" fill="#6C6C6C"/>
</svg>
