<svg width="20" height="20" viewBox="0 0 20 20" fill="none" xmlns="http://www.w3.org/2000/svg">
<path d="M10 0C4.48 0 0 4.48 0 10C0 15.52 4.48 20 10 20C15.52 20 20 15.52 20 10C20 4.48 15.52 0 10 0ZM10 18C5.58 18 2 14.42 2 10C2 8.15 2.63 6.45 3.69 5.1L14.9 16.31C13.5032 17.4084 11.7769 18.0038 10 18ZM16.31 14.9L5.1 3.69C6.49679 2.59163 8.22309 1.99623 10 2C14.42 2 18 5.58 18 10C18 11.85 17.37 13.55 16.31 14.9Z" fill="url(#paint0_linear_4480_3245)" fill-opacity="0.870588"/>
<defs>
<linearGradient id="paint0_linear_4480_3245" x1="11.2901" y1="28.4091" x2="-1.77252" y2="24.9819" gradientUnits="userSpaceOnUse">
<stop stop-color="#89302E"/>
<stop offset="1" stop-color="#EF5350"/>
</linearGradient>
</defs>
</svg>
