<svg width="24" height="24" viewBox="0 0 24 24" fill="none" xmlns="http://www.w3.org/2000/svg">
<path d="M9.116 18.38C8.022 17.886 7.11767 17.1643 6.403 16.215C5.68833 15.2657 5.24567 14.194 5.075 13H6.081C6.231 13.9093 6.572 14.737 7.104 15.483C7.636 16.229 8.30633 16.827 9.115 17.277L9.116 18.38ZM12.712 21C12.372 21 12.085 20.883 11.851 20.649C11.617 20.415 11.5 20.1283 11.5 19.789V14.596C11.5 14.256 11.617 13.9693 11.851 13.736C12.085 13.5027 12.3717 13.3857 12.711 13.385H14.411C14.6103 13.385 14.8033 13.4337 14.99 13.531C15.1767 13.6283 15.3233 13.766 15.43 13.944L16 14.808H19.789C20.1283 14.808 20.415 14.9247 20.649 15.158C20.883 15.3927 21 15.6797 21 16.019V19.789C21 20.1283 20.883 20.415 20.649 20.649C20.415 20.883 20.1283 21 19.789 21H12.712ZM4.212 10.615C3.872 10.615 3.585 10.4983 3.351 10.265C3.117 10.0317 3 9.74433 3 9.403V4.212C3 3.872 3.117 3.585 3.351 3.351C3.585 3.117 3.87167 3 4.211 3H5.911C6.11033 3 6.30333 3.04867 6.49 3.146C6.67667 3.24333 6.82333 3.38133 6.93 3.56L7.5 4.423H11.289C11.6283 4.423 11.915 4.54 12.149 4.774C12.383 5.008 12.5 5.29467 12.5 5.634V9.404C12.5 9.744 12.383 10.0307 12.149 10.264C11.915 10.4973 11.6283 10.6147 11.289 10.616L4.212 10.615ZM18 12C18 10.8907 17.7237 9.86733 17.171 8.93C16.6183 7.992 15.8563 7.26267 14.885 6.742V5.658C16.1583 6.198 17.1623 7.04567 17.897 8.201C18.6317 9.35633 18.9993 10.6227 19 12H18ZM12.827 20H19.673C19.763 20 19.8397 19.968 19.903 19.904C19.9677 19.84 20 19.763 20 19.673V16.135C20 16.045 19.9713 15.968 19.914 15.904C19.856 15.84 19.7757 15.808 19.673 15.808H15.463L14.656 14.596C14.6173 14.532 14.5627 14.4807 14.492 14.442C14.4213 14.4033 14.348 14.384 14.272 14.384H12.827C12.737 14.384 12.6603 14.4163 12.597 14.481C12.5323 14.545 12.5 14.6217 12.5 14.711V19.673C12.5 19.763 12.532 19.8397 12.596 19.903C12.66 19.9677 12.737 20 12.827 20ZM4.327 9.615H11.173C11.263 9.615 11.3397 9.583 11.403 9.519C11.4677 9.455 11.5 9.37833 11.5 9.289V5.75C11.5 5.66067 11.4713 5.584 11.414 5.52C11.3567 5.456 11.2763 5.42367 11.173 5.423H6.963L6.156 4.212C6.11733 4.148 6.06267 4.09667 5.992 4.058C5.92133 4.01933 5.848 4 5.772 4H4.326C4.236 4 4.15933 4.032 4.096 4.096C4.032 4.16 4 4.237 4 4.327V9.289C4 9.37833 4.032 9.455 4.096 9.519C4.16 9.58367 4.237 9.616 4.327 9.616" fill="black"/>
</svg>
