<svg width="185" height="126" viewBox="0 0 185 126" fill="none" xmlns="http://www.w3.org/2000/svg">
<g filter="url(#filter0_d_13_943)">
<rect x="6.82764" y="2" width="171.35" height="114" rx="20" fill="#E3C8A8"/>
</g>
<mask id="mask0_13_943" style="mask-type:alpha" maskUnits="userSpaceOnUse" x="6" y="2" width="173" height="114">
<rect x="6.82764" y="2" width="171.35" height="114" rx="20" fill="#6418C3"/>
</mask>
<g mask="url(#mask0_13_943)">
<path d="M175.023 18.2282C175.023 4.07888 163.552 -7.39227 149.401 -7.39227C135.25 -7.39227 123.779 4.07888 123.779 18.2282C123.779 32.3776 135.25 43.8488 149.401 43.8488C163.552 43.8488 175.023 32.3776 175.023 18.2282Z" stroke="#D6B58E" stroke-width="37"/>
<mask id="path-4-inside-1_13_943" fill="white">
<ellipse cx="31.443" cy="31.4422" rx="31.443" ry="31.4422" transform="matrix(1 0 0 -1 -8.82837 143.997)"/>
</mask>
<path d="M17.0577 112.555C17.0577 115.625 19.5466 118.113 22.6147 118.113V44.1127C60.4138 44.1127 91.0577 74.7543 91.0577 112.555H17.0577ZM22.6147 118.113C25.6828 118.113 28.1716 115.625 28.1716 112.555H-45.8284C-45.8284 74.7543 -15.1844 44.1127 22.6147 44.1127V118.113ZM28.1716 112.555C28.1716 109.484 25.6828 106.997 22.6147 106.997V180.997C-15.1844 180.997 -45.8284 150.355 -45.8284 112.555H28.1716ZM22.6147 106.997C19.5466 106.997 17.0577 109.484 17.0577 112.555H91.0577C91.0577 150.355 60.4138 180.997 22.6147 180.997V106.997Z" fill="#D6B58E" mask="url(#path-4-inside-1_13_943)"/>
</g>
<ellipse cx="33.6716" cy="102.464" rx="8.46386" ry="8.46364" fill="white" fill-opacity="0.43"/>
<ellipse cx="23.3079" cy="102.464" rx="8.46386" ry="8.46364" fill="white" fill-opacity="0.43"/>
<defs>
<filter id="filter0_d_13_943" x="0.827637" y="0" width="183.35" height="126" filterUnits="userSpaceOnUse" color-interpolation-filters="sRGB">
<feFlood flood-opacity="0" result="BackgroundImageFix"/>
<feColorMatrix in="SourceAlpha" type="matrix" values="0 0 0 0 0 0 0 0 0 0 0 0 0 0 0 0 0 0 127 0" result="hardAlpha"/>
<feOffset dy="4"/>
<feGaussianBlur stdDeviation="3"/>
<feColorMatrix type="matrix" values="0 0 0 0 0.243137 0 0 0 0 0.286275 0 0 0 0 0.329412 0 0 0 0.04 0"/>
<feBlend mode="normal" in2="BackgroundImageFix" result="effect1_dropShadow_13_943"/>
<feBlend mode="normal" in="SourceGraphic" in2="effect1_dropShadow_13_943" result="shape"/>
</filter>
</defs>
</svg>
