<svg width="24" height="24" viewBox="0 0 24 24" fill="none" xmlns="http://www.w3.org/2000/svg">
<path d="M18.75 21.375C20.1997 21.375 21.375 20.1997 21.375 18.75C21.375 17.3003 20.1997 16.125 18.75 16.125C17.3003 16.125 16.125 17.3003 16.125 18.75C16.125 20.1997 17.3003 21.375 18.75 21.375Z" stroke="#6C6C6C" stroke-width="1.5" stroke-linecap="round" stroke-linejoin="round"/>
<path d="M5.25 21.375C6.69975 21.375 7.875 20.1997 7.875 18.75C7.875 17.3003 6.69975 16.125 5.25 16.125C3.80025 16.125 2.625 17.3003 2.625 18.75C2.625 20.1997 3.80025 21.375 5.25 21.375Z" stroke="#6C6C6C" stroke-width="1.5" stroke-linecap="round" stroke-linejoin="round"/>
<path d="M5.25 7.875C6.69975 7.875 7.875 6.69975 7.875 5.25C7.875 3.80025 6.69975 2.625 5.25 2.625C3.80025 2.625 2.625 3.80025 2.625 5.25C2.625 6.69975 3.80025 7.875 5.25 7.875Z" stroke="#6C6C6C" stroke-width="1.5" stroke-linecap="round" stroke-linejoin="round"/>
<path d="M13.875 2.625L11.625 5.625L13.875 8.625M18.375 15.375V7.875C18.375 6.375 17.625 5.625 16.125 5.625H13.125M5.625 8.625V15.375" stroke="#6C6C6C" stroke-width="1.5" stroke-linecap="round" stroke-linejoin="round"/>
</svg>
