<svg width="25" height="24" viewBox="0 0 25 24" fill="none" xmlns="http://www.w3.org/2000/svg">
<path d="M19.25 21.375C20.6997 21.375 21.875 20.1997 21.875 18.75C21.875 17.3003 20.6997 16.125 19.25 16.125C17.8003 16.125 16.625 17.3003 16.625 18.75C16.625 20.1997 17.8003 21.375 19.25 21.375Z" stroke="black" stroke-width="1.5" stroke-linecap="round" stroke-linejoin="round"/>
<path d="M5.75 21.375C7.19975 21.375 8.375 20.1997 8.375 18.75C8.375 17.3003 7.19975 16.125 5.75 16.125C4.30025 16.125 3.125 17.3003 3.125 18.75C3.125 20.1997 4.30025 21.375 5.75 21.375Z" stroke="black" stroke-width="1.5" stroke-linecap="round" stroke-linejoin="round"/>
<path d="M5.75 7.875C7.19975 7.875 8.375 6.69975 8.375 5.25C8.375 3.80025 7.19975 2.625 5.75 2.625C4.30025 2.625 3.125 3.80025 3.125 5.25C3.125 6.69975 4.30025 7.875 5.75 7.875Z" stroke="black" stroke-width="1.5" stroke-linecap="round" stroke-linejoin="round"/>
<path d="M14.375 2.625L12.125 5.625L14.375 8.625M18.875 15.375V7.875C18.875 6.375 18.125 5.625 16.625 5.625H13.625M6.125 8.625V15.375" stroke="black" stroke-width="1.5" stroke-linecap="round" stroke-linejoin="round"/>
</svg>
