<svg width="24" height="21" viewBox="0 0 24 21" fill="none" xmlns="http://www.w3.org/2000/svg">
<path d="M6.54419 0.663979C6.49194 0.611539 6.42984 0.569931 6.36147 0.54154C6.29309 0.513149 6.21979 0.498535 6.14576 0.498535C6.07172 0.498535 5.99842 0.513149 5.93005 0.54154C5.86167 0.569931 5.79958 0.611539 5.74732 0.663979L2.76232 3.63163L1.69826 2.59476C1.646 2.54232 1.5839 2.50071 1.51553 2.47232C1.44716 2.44393 1.37385 2.42932 1.29982 2.42932C1.22579 2.42932 1.15248 2.44393 1.08411 2.47232C1.01574 2.50071 0.953639 2.54232 0.901381 2.59476L0.165444 3.33164C0.113004 3.38389 0.0713953 3.44599 0.0430048 3.51436C0.0146143 3.58273 0 3.65604 0 3.73007C0 3.80411 0.0146143 3.87741 0.0430048 3.94578C0.0713953 4.01416 0.113004 4.07625 0.165444 4.12851L2.39622 6.35038C2.50757 6.45623 2.65533 6.51525 2.80896 6.51525C2.96259 6.51525 3.11034 6.45623 3.22169 6.35038L3.95247 5.6182L7.33685 2.23429C7.4423 2.12876 7.50188 1.9859 7.50267 1.83672C7.50346 1.68754 7.44539 1.54406 7.34107 1.43742L6.54419 0.663979ZM6.54419 8.12601C6.49194 8.07357 6.42984 8.03196 6.36147 8.00357C6.29309 7.97518 6.21979 7.96057 6.14576 7.96057C6.07172 7.96057 5.99842 7.97518 5.93005 8.00357C5.86167 8.03196 5.79958 8.07357 5.74732 8.12601L2.76232 11.1129L1.69826 10.0769C1.646 10.0245 1.5839 9.9829 1.51553 9.95451C1.44716 9.92612 1.37385 9.9115 1.29982 9.9115C1.22579 9.9115 1.15248 9.92612 1.08411 9.95451C1.01574 9.9829 0.953639 10.0245 0.901381 10.0769L0.165444 10.8124C0.113004 10.8647 0.0713953 10.9268 0.0430048 10.9951C0.0146143 11.0635 0 11.1368 0 11.2109C0 11.2849 0.0146143 11.3582 0.0430048 11.4266C0.0713953 11.4949 0.113004 11.557 0.165444 11.6093L2.3906 13.8359C2.50187 13.9417 2.64955 14.0007 2.8031 14.0007C2.95665 14.0007 3.10433 13.9417 3.2156 13.8359L3.95154 13.1004L7.33591 9.71507C7.44096 9.61028 7.50034 9.46822 7.50113 9.31985C7.50192 9.17147 7.44405 9.02879 7.34013 8.92288L6.54419 8.12601ZM2.99997 16.2499C1.75826 16.2499 0.722319 17.2577 0.722319 18.4999C0.722319 19.7421 1.75919 20.7499 2.99997 20.7499C3.59671 20.7499 4.16901 20.5129 4.59096 20.0909C5.01292 19.6689 5.24997 19.0967 5.24997 18.4999C5.24997 17.9032 5.01292 17.3309 4.59096 16.9089C4.16901 16.487 3.59671 16.2499 2.99997 16.2499ZM23.25 16.9999H9.74997C9.55106 16.9999 9.3603 17.0789 9.21964 17.2196C9.07899 17.3602 8.99997 17.551 8.99997 17.7499V19.2499C8.99997 19.4488 9.07899 19.6396 9.21964 19.7802C9.3603 19.9209 9.55106 19.9999 9.74997 19.9999H23.25C23.4489 19.9999 23.6397 19.9209 23.7803 19.7802C23.921 19.6396 24 19.4488 24 19.2499V17.7499C24 17.551 23.921 17.3602 23.7803 17.2196C23.6397 17.0789 23.4489 16.9999 23.25 16.9999ZM23.25 1.99992H9.74997C9.55106 1.99992 9.3603 2.07893 9.21964 2.21959C9.07899 2.36024 8.99997 2.551 8.99997 2.74992V4.24992C8.99997 4.44883 9.07899 4.63959 9.21964 4.78025C9.3603 4.9209 9.55106 4.99992 9.74997 4.99992H23.25C23.4489 4.99992 23.6397 4.9209 23.7803 4.78025C23.921 4.63959 24 4.44883 24 4.24992V2.74992C24 2.551 23.921 2.36024 23.7803 2.21959C23.6397 2.07893 23.4489 1.99992 23.25 1.99992ZM23.25 9.49992H9.74997C9.55106 9.49992 9.3603 9.57893 9.21964 9.71959C9.07899 9.86024 8.99997 10.051 8.99997 10.2499V11.7499C8.99997 11.9488 9.07899 12.1396 9.21964 12.2802C9.3603 12.4209 9.55106 12.4999 9.74997 12.4999H23.25C23.4489 12.4999 23.6397 12.4209 23.7803 12.2802C23.921 12.1396 24 11.9488 24 11.7499V10.2499C24 10.051 23.921 9.86024 23.7803 9.71959C23.6397 9.57893 23.4489 9.49992 23.25 9.49992Z" fill="#016E73"/>
</svg>
