<svg width="70" height="61" viewBox="0 0 70 61" fill="none" xmlns="http://www.w3.org/2000/svg">
<path d="M36.716 15.1848L36.8082 15.2123L36.8123 15.2077C37.2499 15.287 37.6841 15.025 37.8127 14.5909C38.9843 10.6542 42.6754 7.90401 46.7878 7.90401C47.2747 7.90401 47.6696 7.50912 47.6696 7.02227C47.6696 6.53539 47.2747 6.14053 46.7878 6.14053C41.7337 6.14053 37.4865 9.50561 36.1228 14.0883C35.9836 14.5551 36.2495 15.0457 36.716 15.1848Z" fill="#088586" stroke="#F9FFF9" stroke-width="0.3"/>
<path d="M57.0317 42.8774H52.6414C52.2374 42.8774 51.9097 42.5497 51.9097 42.1456C51.9097 41.7416 52.2374 41.4139 52.6414 41.4139H57.0317C63.0836 41.4139 68.0077 36.4898 68.0077 30.438C68.0077 24.3861 63.0836 19.462 57.0317 19.462H56.9262C56.714 19.462 56.5122 19.37 56.3732 19.2096C56.2342 19.0491 56.1714 18.8364 56.2018 18.6263C56.2671 18.1705 56.3 17.7126 56.3 17.2668C56.3 12.0219 52.0324 7.75428 46.7875 7.75428C44.747 7.75428 42.8011 8.39193 41.1599 9.59874C40.7992 9.86374 40.287 9.74614 40.0785 9.34943C35.4304 0.498664 23.2903 -0.689904 16.9962 7.00949C14.3448 10.2531 13.303 14.4726 14.1378 18.585C14.2298 19.0392 13.8822 19.4626 13.4207 19.4626H13.1275C7.07559 19.4626 2.15152 24.3866 2.15152 30.4385C2.15152 36.4904 7.07559 41.4145 13.1275 41.4145H17.5178C17.9218 41.4145 18.2495 41.7422 18.2495 42.1462C18.2495 42.5502 17.9218 42.8779 17.5178 42.8779H13.1275C6.26849 42.8779 0.687988 37.2975 0.687988 30.4385C0.687988 23.7719 5.95954 18.3132 12.5531 18.0121C11.9337 13.7455 13.1181 9.44191 15.8631 6.08334C22.6018 -2.16063 35.516 -1.23659 40.9751 7.95604C42.7167 6.86418 44.7095 6.2914 46.7872 6.2914C53.1418 6.2914 58.1772 11.7 57.7365 18.0189C64.2693 18.3853 69.4709 23.8152 69.4709 30.4379C69.4709 37.2975 63.8904 42.8774 57.0314 42.8774L57.0317 42.8774Z" fill="#088586"/>
<path d="M16.538 41.7324C16.538 51.9024 24.8117 60.1759 34.9815 60.1759C45.1514 60.1759 53.4249 51.9023 53.4249 41.7324C53.4249 31.5625 45.1514 23.289 34.9815 23.289C24.8115 23.289 16.538 31.5626 16.538 41.7324ZM18.3018 41.7324C18.3018 32.5355 25.7844 25.0528 34.9815 25.0528C44.1784 25.0528 51.6611 32.5354 51.6611 41.7324C51.6611 50.9293 44.1784 58.4121 34.9815 58.4121C25.7846 58.4121 18.3018 50.9295 18.3018 41.7324Z" fill="#088586" stroke="#F9FFF9" stroke-width="0.3"/>
<path d="M34.6308 49.0966C34.6308 49.4753 34.9379 49.7823 35.3165 49.7823C35.695 49.7823 36.0022 49.4757 36.0022 49.0966V35.168C36.0022 34.7894 35.6951 34.4823 35.3165 34.4823C34.9378 34.4823 34.6308 34.7894 34.6308 35.168V49.0966Z" fill="#088586" stroke="#483EA8" stroke-width="0.3"/>
<path d="M35.3161 36.1393L31.5154 39.94L35.3161 36.1393ZM35.3161 36.1393L39.1169 39.9401C39.2506 40.0738 39.4266 40.1409 39.6017 40.1409L35.3161 36.1393ZM30.5455 39.9401C30.8133 40.2079 31.2477 40.2081 31.5153 39.9401L39.6018 40.1409C39.7766 40.1409 39.9527 40.0744 40.0867 39.9401C40.3545 39.6722 40.3545 39.2382 40.0866 38.9703L35.801 34.6847C35.5332 34.4169 35.0988 34.4167 34.8312 34.6847C34.8312 34.6847 34.8311 34.6848 34.8311 34.6848L30.5455 38.9703C30.2777 39.2382 30.2777 39.6722 30.5455 39.9401Z" fill="#088586" stroke="#483EA8" stroke-width="0.3"/>
</svg>
