<svg width="24" height="24" viewBox="0 0 24 24" fill="none" xmlns="http://www.w3.org/2000/svg">
<path d="M17.4938 11.2501C17.5313 11.3063 17.625 11.2688 17.625 11.2126C17.7375 10.2001 18.0375 7.40634 20.025 6.80634C20.6625 6.61884 21.3 7.06884 21.375 7.65009C21.5063 8.58759 20.4375 11.0063 20.5313 13.2188C20.55 13.5751 21.15 17.3438 19.5563 19.5751C17.9625 21.8063 14.175 24.0751 10.4063 20.6251C8.4563 18.8438 8.4563 18.1313 6.03755 15.6376C5.55005 15.1501 3.60005 13.0126 3.07505 12.3563C2.3813 11.4751 3.48755 10.3126 4.3313 10.9126C4.72505 11.1938 8.21255 14.1188 8.3438 14.2501C8.6063 14.4751 8.92505 14.1563 8.73755 13.9313C6.60004 11.1188 4.53755 8.58759 3.97505 7.61259C3.41255 6.63759 4.76255 5.58759 5.55005 6.43134C6.0938 6.99384 10.125 11.7001 10.3125 11.9063C10.5 12.1126 10.8188 11.8501 10.7063 11.5876C10.575 11.3438 7.31255 5.66259 6.7313 4.36884C6.22505 3.22509 7.91255 2.15634 8.70005 3.33759C9.33755 4.27509 12.9 10.2001 13.0313 10.4063C13.2 10.7063 13.575 10.5188 13.425 10.1813C13.3125 9.93759 11.1188 3.93759 10.95 3.31884C10.65 2.23134 12.2063 1.33134 12.9375 2.56884C13.9313 4.27509 15.9 9.48759 17.4938 11.2501Z" fill="#FFCA28"/>
<mask id="mask0_110_1571" style="mask-type:luminance" maskUnits="userSpaceOnUse" x="2" y="1" width="20" height="22">
<path d="M17.4938 11.2501C17.5313 11.3063 17.625 11.2688 17.625 11.2126C17.7375 10.2001 18.0375 7.40634 20.025 6.80634C20.6625 6.61884 21.3 7.06884 21.375 7.65009C21.5063 8.58759 20.4375 11.0063 20.5313 13.2188C20.55 13.5751 21.15 17.3438 19.5563 19.5751C17.9625 21.8063 14.175 24.0751 10.4063 20.6251C8.4563 18.8438 8.4563 18.1313 6.03755 15.6376C5.55005 15.1501 3.60005 13.0126 3.07505 12.3563C2.3813 11.4751 3.48755 10.3126 4.3313 10.9126C4.72505 11.1938 8.21255 14.1188 8.3438 14.2501C8.6063 14.4751 8.92505 14.1563 8.73755 13.9313C6.60004 11.1188 4.53755 8.58759 3.97505 7.61259C3.41255 6.63759 4.76255 5.58759 5.55005 6.43134C6.0938 6.99384 10.125 11.7001 10.3125 11.9063C10.5 12.1126 10.8188 11.8501 10.7063 11.5876C10.575 11.3438 7.31255 5.66259 6.7313 4.36884C6.22505 3.22509 7.91255 2.15634 8.70005 3.33759C9.33755 4.27509 12.9 10.2001 13.0313 10.4063C13.2 10.7063 13.575 10.5188 13.425 10.1813C13.3125 9.93759 11.1188 3.93759 10.95 3.31884C10.65 2.23134 12.2063 1.33134 12.9375 2.56884C13.9313 4.27509 15.9 9.48759 17.4938 11.2501Z" fill="white"/>
</mask>
<g mask="url(#mask0_110_1571)">
<path d="M17.1001 11.2877C14.7751 13.1815 13.7439 15.8815 15.6564 18.694C15.8251 18.9377 16.1814 18.7127 16.0314 18.4315C15.2439 17.0252 14.6626 14.494 17.3814 11.8502C17.7001 12.0002 18.0751 11.6815 18.0939 11.4002C18.3001 9.63774 18.5064 8.17524 19.8189 7.35024C20.3251 7.03149 20.9814 7.25649 21.0189 8.02524C21.0189 8.02524 21.4314 8.06274 21.6001 8.08149C21.6939 7.68774 21.8814 6.97524 21.8814 6.95649C21.8814 6.93774 19.6689 6.11274 19.6689 6.11274L17.7376 8.02524L17.1001 11.2877ZM13.3501 10.519C13.6126 10.3877 13.8376 10.1815 13.7251 9.90024C13.6126 9.60024 11.5314 3.93774 11.4001 3.50649C11.1376 2.71899 11.7939 2.10024 12.3751 2.36274C12.6939 2.51274 12.8439 2.00649 12.6751 1.93149C12.5064 1.85649 12.1126 1.50024 11.3251 1.89399C9.91887 2.60649 10.7439 4.18149 11.1189 5.10024C11.4939 6.01899 13.3501 10.519 13.3501 10.519ZM10.6314 11.9252C10.9501 11.7002 11.1939 11.5127 10.9126 11.0627C10.7251 10.7627 7.55637 5.00649 7.23762 4.44399C6.76887 3.63774 7.74387 2.92524 8.28762 3.43149C8.53137 3.65649 8.90637 3.16899 8.71887 2.98149C8.53137 2.79399 7.87512 2.25024 7.05012 2.79399C6.22512 3.33774 6.20637 3.99399 6.31887 4.27524C6.41262 4.55649 10.6314 11.9252 10.6314 11.9252ZM8.75637 14.2315C8.98137 13.894 9.13137 13.7252 8.81262 13.294C8.49387 12.8627 4.70637 7.91274 4.50012 7.63149C3.97512 6.93774 4.74387 6.33774 5.11887 6.54399C5.47512 6.75024 5.68137 6.16899 5.38137 6.01899C5.08137 5.86899 4.59387 5.70024 4.14387 6.01899C3.69387 6.33774 3.43137 6.99399 3.50637 7.36899C3.56262 7.74399 8.75637 14.2315 8.75637 14.2315Z" fill="#FAA700"/>
<path d="M17.4001 21.3004C14.3626 22.7442 12.0938 21.6192 10.6313 20.1942C8.96259 18.5629 8.17509 17.0629 7.06884 16.0504C6.69384 15.6942 3.73134 12.5442 3.37509 12.0004C3.09384 11.5504 3.65634 10.7817 4.27509 11.2129C4.66884 11.4754 4.85634 10.9129 4.59384 10.7629C4.33134 10.6129 3.75009 10.2942 3.13134 10.7629C2.51259 11.2129 2.49384 12.0192 2.64384 12.2817C2.79384 12.5442 11.9063 23.0067 11.9063 23.0067L15.6188 22.9129L17.6063 21.6942L17.4001 21.3004Z" fill="#FAA700"/>
</g>
<mask id="mask1_110_1571" style="mask-type:luminance" maskUnits="userSpaceOnUse" x="2" y="1" width="20" height="22">
<path d="M17.4938 11.2501C17.5313 11.3063 17.625 11.2688 17.625 11.2126C17.7375 10.2001 18.0375 7.40634 20.025 6.80634C20.6625 6.61884 21.3 7.06884 21.375 7.65009C21.5063 8.58759 20.4375 11.0063 20.5313 13.2188C20.55 13.5751 21.15 17.3438 19.5563 19.5751C17.9625 21.8063 14.175 24.0751 10.4063 20.6251C8.4563 18.8438 8.4563 18.1313 6.03755 15.6376C5.55005 15.1501 3.60005 13.0126 3.07505 12.3563C2.3813 11.4751 3.48755 10.3126 4.3313 10.9126C4.72505 11.1938 8.21255 14.1188 8.3438 14.2501C8.6063 14.4751 8.92505 14.1563 8.73755 13.9313C6.60004 11.1188 4.53755 8.58759 3.97505 7.61259C3.41255 6.63759 4.76255 5.58759 5.55005 6.43134C6.0938 6.99384 10.125 11.7001 10.3125 11.9063C10.5 12.1126 10.8188 11.8501 10.7063 11.5876C10.575 11.3438 7.31255 5.66259 6.7313 4.36884C6.22505 3.22509 7.91255 2.15634 8.70005 3.33759C9.33755 4.27509 12.9 10.2001 13.0313 10.4063C13.2 10.7063 13.575 10.5188 13.425 10.1813C13.3125 9.93759 11.1188 3.93759 10.95 3.31884C10.65 2.23134 12.2063 1.33134 12.9375 2.56884C13.9313 4.27509 15.9 9.48759 17.4938 11.2501Z" fill="white"/>
</mask>
<g mask="url(#mask1_110_1571)">
<path d="M20.9063 6.7501C21.0001 6.99385 21.1126 7.4251 21.0001 8.00635C20.5688 10.1813 19.8563 11.4563 20.0813 13.8001C20.4938 18.3001 18.9188 21.7126 13.5001 22.3876C12.9563 22.4626 13.1063 22.8751 13.3876 22.8376C13.5188 22.8188 17.3813 22.1251 17.3813 22.1251C17.3813 22.1251 20.9626 19.0688 20.9626 19.0313C20.9626 18.9938 21.8626 7.33135 21.8626 7.33135L20.9063 6.7501ZM11.5313 1.96885C11.7751 2.00635 12.3001 2.2126 12.6751 2.94385C13.0501 3.6751 14.8876 7.89385 15.1313 8.34385C15.3751 8.79385 16.3688 11.0251 17.1751 11.7001C17.4376 11.9063 17.5688 11.5501 17.5688 11.5501L17.5876 10.9688L13.2376 1.06885L11.7938 1.1251L11.5313 1.96885ZM13.3501 10.5188C12.9938 10.6876 12.7313 10.8376 12.4688 10.4251C12.3001 10.1251 10.4813 7.0126 8.19383 3.3751C8.00633 3.09385 7.57508 2.8501 7.23758 2.98135C6.90008 3.13135 6.82508 2.7001 6.99383 2.60635C7.16258 2.5126 8.21258 1.93135 8.92508 3.13135C9.63758 4.33135 13.3501 10.5188 13.3501 10.5188ZM10.6313 11.9251C10.3501 12.1313 10.0688 12.3938 9.71258 11.9626C9.37508 11.5501 5.53133 6.9751 5.30633 6.69385C5.08133 6.4126 4.61258 6.16885 4.25633 6.39385C4.01258 6.54385 3.78758 6.09385 3.93758 5.98135C4.08758 5.86885 4.93133 5.11885 5.49383 5.75635C6.05633 6.39385 10.6313 11.9251 10.6313 11.9251ZM8.75633 14.2313C8.51258 14.4938 8.25008 14.6438 7.89383 14.3813C7.53758 14.1188 4.35008 11.4376 4.14383 11.2501C3.93758 11.0626 3.33758 10.7813 2.88758 11.2313C2.71883 11.4001 2.41883 11.1188 2.58758 10.9501C2.75633 10.7626 3.67508 9.8251 4.40633 10.4438C5.13758 11.0626 8.75633 14.2313 8.75633 14.2313Z" fill="#B55E19"/>
</g>
<path d="M1.98746 15.2437C2.56871 16.9687 3.44996 18.0374 4.89371 19.0124C5.15621 19.1999 5.00621 19.5749 4.70621 19.4437C3.35621 18.8999 1.85621 17.6999 1.49996 15.3187C1.44371 14.9999 1.89371 14.9437 1.98746 15.2437ZM3.11246 14.2124C3.69371 15.9374 4.57496 17.0062 6.01871 17.9812C6.28121 18.1687 6.13121 18.5437 5.83121 18.4124C4.48121 17.8687 2.98121 16.6687 2.62496 14.2874C2.58746 13.9687 3.01871 13.9124 3.11246 14.2124ZM17.5312 6.48743C17.0812 4.72493 16.2562 3.59994 14.8875 2.54994C14.625 2.36244 14.8125 1.98744 15.1125 2.11869C16.425 2.73744 17.85 4.04994 18.0375 6.44994C18.0562 6.76869 17.6062 6.80618 17.5312 6.48743ZM18.75 5.58743C18.3 3.82493 17.475 2.69994 16.1062 1.64994C15.8437 1.46244 16.0312 1.08744 16.3312 1.21869C17.6437 1.83744 19.0687 3.14994 19.2562 5.54994C19.275 5.84994 18.8437 5.88743 18.75 5.58743Z" fill="#B0BEC5"/>
</svg>
